<svg width="117" height="139" viewBox="0 0 117 139" fill="none" xmlns="http://www.w3.org/2000/svg">
<path d="M115.049 28.7948L88.6427 2.38852C88.1519 1.89824 87.5693 1.50946 86.9282 1.24441C86.2871 0.97935 85.6 0.843206 84.9062 0.843752H32.0938C29.2924 0.843752 26.6058 1.95658 24.6249 3.93744C22.6441 5.91829 21.5312 8.6049 21.5312 11.4063V21.9688H10.9688C8.1674 21.9688 5.48079 23.0816 3.49993 25.0624C1.51908 27.0433 0.40625 29.7299 0.40625 32.5313V127.594C0.40625 130.395 1.51908 133.082 3.49993 135.063C5.48079 137.043 8.1674 138.156 10.9688 138.156H84.9062C87.7076 138.156 90.3942 137.043 92.3751 135.063C94.3559 133.082 95.4688 130.395 95.4688 127.594V117.031H106.031C108.833 117.031 111.519 115.918 113.5 113.938C115.481 111.957 116.594 109.27 116.594 106.469V32.5313C116.594 31.8375 116.458 31.1504 116.193 30.5093C115.928 29.8682 115.539 29.2856 115.049 28.7948ZM84.9062 127.594H10.9688V32.5313H61.5961L84.9062 55.8414V111.644C84.9062 111.684 84.9062 111.717 84.9062 111.75C84.9062 111.783 84.9062 111.816 84.9062 111.856V127.594ZM106.031 106.469H95.4688V53.6562C95.4693 52.9625 95.3332 52.2754 95.0681 51.6343C94.803 50.9932 94.4143 50.4106 93.924 49.9198L67.5177 23.5135C67.0269 23.0232 66.4443 22.6345 65.8032 22.3694C65.1621 22.1043 64.475 21.9682 63.7812 21.9688H32.0938V11.4063H82.7211L106.031 34.7164V106.469ZM69.0625 85.3438C69.0625 86.7444 68.5061 88.0877 67.5157 89.0782C66.5252 90.0686 65.1819 90.625 63.7812 90.625H32.0938C30.6931 90.625 29.3498 90.0686 28.3593 89.0782C27.3689 88.0877 26.8125 86.7444 26.8125 85.3438C26.8125 83.9431 27.3689 82.5998 28.3593 81.6093C29.3498 80.6189 30.6931 80.0625 32.0938 80.0625H63.7812C65.1819 80.0625 66.5252 80.6189 67.5157 81.6093C68.5061 82.5998 69.0625 83.9431 69.0625 85.3438ZM69.0625 106.469C69.0625 107.869 68.5061 109.213 67.5157 110.203C66.5252 111.194 65.1819 111.75 63.7812 111.75H32.0938C30.6931 111.75 29.3498 111.194 28.3593 110.203C27.3689 109.213 26.8125 107.869 26.8125 106.469C26.8125 105.068 27.3689 103.725 28.3593 102.734C29.3498 101.744 30.6931 101.188 32.0938 101.188H63.7812C65.1819 101.188 66.5252 101.744 67.5157 102.734C68.5061 103.725 69.0625 105.068 69.0625 106.469Z" fill="white"/>
</svg>
