<svg width="569" height="511" viewBox="0 0 569 511" fill="none" xmlns="http://www.w3.org/2000/svg">
<path d="M32 373C32 373 62 559.607 156 489.607C250 419.607 234 231 282 231C330 231 366 489 438 413C510 337 529 263.213 461 177.607C393 92 566 5 566 5" stroke="#DAF1F0" stroke-width="10"/>
<circle cx="449" cy="114" r="31" fill="#4BACA5" fill-opacity="0.3"/>
<circle cx="449" cy="114" r="22" fill="#4BACA5"/>
<path d="M455.25 106.5H453.375V105.875C453.375 105.709 453.309 105.55 453.192 105.433C453.075 105.316 452.916 105.25 452.75 105.25C452.584 105.25 452.425 105.316 452.308 105.433C452.191 105.55 452.125 105.709 452.125 105.875V106.5H445.875V105.875C445.875 105.709 445.809 105.55 445.692 105.433C445.575 105.316 445.416 105.25 445.25 105.25C445.084 105.25 444.925 105.316 444.808 105.433C444.691 105.55 444.625 105.709 444.625 105.875V106.5H442.75C442.418 106.5 442.101 106.632 441.866 106.866C441.632 107.101 441.5 107.418 441.5 107.75V120.25C441.5 120.582 441.632 120.899 441.866 121.134C442.101 121.368 442.418 121.5 442.75 121.5H455.25C455.582 121.5 455.899 121.368 456.134 121.134C456.368 120.899 456.5 120.582 456.5 120.25V107.75C456.5 107.418 456.368 107.101 456.134 106.866C455.899 106.632 455.582 106.5 455.25 106.5ZM444.625 107.75V108.375C444.625 108.541 444.691 108.7 444.808 108.817C444.925 108.934 445.084 109 445.25 109C445.416 109 445.575 108.934 445.692 108.817C445.809 108.7 445.875 108.541 445.875 108.375V107.75H452.125V108.375C452.125 108.541 452.191 108.7 452.308 108.817C452.425 108.934 452.584 109 452.75 109C452.916 109 453.075 108.934 453.192 108.817C453.309 108.7 453.375 108.541 453.375 108.375V107.75H455.25V110.25H442.75V107.75H444.625ZM455.25 120.25H442.75V111.5H455.25V120.25Z" fill="white"/>
<circle cx="482" cy="347" r="31" fill="#4BACA5" fill-opacity="0.3"/>
<circle cx="482" cy="347" r="22" fill="#4BACA5"/>
<path d="M490.041 353.562C488.851 351.505 487.017 350.03 484.877 349.331C485.936 348.701 486.758 347.741 487.218 346.598C487.678 345.455 487.75 344.193 487.424 343.006C487.097 341.818 486.389 340.77 485.409 340.024C484.43 339.277 483.232 338.873 482 338.873C480.768 338.873 479.57 339.277 478.591 340.024C477.611 340.77 476.903 341.818 476.577 343.006C476.25 344.193 476.322 345.455 476.782 346.598C477.242 347.741 478.064 348.701 479.123 349.331C476.983 350.03 475.149 351.505 473.959 353.562C473.916 353.634 473.887 353.713 473.874 353.795C473.862 353.878 473.866 353.962 473.886 354.043C473.907 354.124 473.943 354.2 473.994 354.266C474.044 354.333 474.107 354.389 474.18 354.43C474.252 354.472 474.332 354.499 474.415 354.509C474.497 354.52 474.581 354.513 474.662 354.491C474.742 354.468 474.817 354.43 474.882 354.377C474.947 354.325 475.002 354.261 475.041 354.187C476.513 351.644 479.115 350.125 482 350.125C484.885 350.125 487.487 351.644 488.959 354.187C488.998 354.261 489.053 354.325 489.118 354.377C489.183 354.43 489.258 354.468 489.338 354.491C489.419 354.513 489.503 354.52 489.585 354.509C489.668 354.499 489.748 354.472 489.82 354.43C489.893 354.389 489.956 354.333 490.006 354.266C490.057 354.2 490.093 354.124 490.114 354.043C490.134 353.962 490.138 353.878 490.126 353.795C490.113 353.713 490.084 353.634 490.041 353.562ZM477.625 344.5C477.625 343.635 477.882 342.789 478.362 342.069C478.843 341.35 479.526 340.789 480.326 340.458C481.125 340.127 482.005 340.04 482.854 340.209C483.702 340.378 484.482 340.794 485.094 341.406C485.705 342.018 486.122 342.798 486.291 343.646C486.46 344.495 486.373 345.375 486.042 346.174C485.711 346.974 485.15 347.657 484.431 348.138C483.711 348.618 482.865 348.875 482 348.875C480.84 348.874 479.728 348.412 478.908 347.592C478.088 346.772 477.626 345.66 477.625 344.5Z" fill="white"/>
<circle cx="280" cy="240" r="31" fill="#4BACA5" fill-opacity="0.3"/>
<circle cx="280" cy="240" r="22" fill="#4BACA5"/>
<g clip-path="url(#clip0_1_2372)">
<path d="M289.637 238.75L284.366 233.444C282.959 232.039 281.051 231.25 279.063 231.25C277.074 231.25 275.167 232.039 273.759 233.444L273.752 233.451L272.676 234.562C272.565 234.682 272.505 234.841 272.509 235.004C272.513 235.168 272.582 235.323 272.699 235.437C272.817 235.551 272.974 235.614 273.138 235.613C273.301 235.612 273.458 235.547 273.574 235.432L274.647 234.324C275.078 233.893 275.571 233.527 276.108 233.238L279.741 236.875L272.241 244.375C272.125 244.491 272.033 244.629 271.97 244.78C271.907 244.932 271.875 245.095 271.875 245.259C271.875 245.423 271.907 245.586 271.97 245.737C272.033 245.889 272.125 246.027 272.241 246.143L273.858 247.759C273.974 247.875 274.112 247.968 274.263 248.03C274.415 248.093 274.577 248.126 274.742 248.126C274.906 248.126 275.068 248.093 275.22 248.03C275.372 247.968 275.51 247.875 275.626 247.759L283.126 240.259L284.246 241.38L285.626 242.758C285.742 242.874 285.879 242.966 286.031 243.029C286.183 243.092 286.345 243.124 286.51 243.124C286.674 243.124 286.836 243.092 286.988 243.029C287.14 242.966 287.277 242.874 287.394 242.758L289.635 240.516C289.869 240.282 290.001 239.965 290.001 239.633C290.001 239.302 289.87 238.985 289.637 238.75ZM274.741 246.875L273.126 245.259L278.438 239.946L280.054 241.562L274.741 246.875ZM282.683 238.931L280.938 240.677L279.322 239.062L281.068 237.316C281.126 237.258 281.172 237.189 281.203 237.113C281.235 237.038 281.251 236.956 281.251 236.874C281.251 236.792 281.235 236.711 281.203 236.635C281.172 236.559 281.126 236.49 281.068 236.432L277.369 232.734C278.438 232.433 279.567 232.422 280.641 232.703C281.716 232.983 282.696 233.544 283.481 234.329L286.936 237.806L284.688 240.051L283.568 238.931C283.51 238.873 283.441 238.827 283.365 238.796C283.289 238.764 283.208 238.748 283.126 238.748C283.043 238.748 282.962 238.764 282.886 238.796C282.81 238.827 282.741 238.873 282.683 238.931ZM286.512 241.873L285.574 240.936L287.813 238.691L288.751 239.629L286.512 241.873Z" fill="white"/>
</g>
<circle cx="210" cy="416" r="31" fill="#4BACA5" fill-opacity="0.3"/>
<circle cx="210" cy="416" r="22" fill="#4BACA5"/>
<path d="M217.096 414.107L210.846 408.21C210.843 408.207 210.84 408.205 210.837 408.201C210.607 407.992 210.308 407.876 209.996 407.876C209.685 407.876 209.386 407.992 209.155 408.201L209.147 408.21L202.904 414.107C202.777 414.224 202.675 414.366 202.605 414.525C202.536 414.683 202.5 414.854 202.5 415.027V422.25C202.5 422.581 202.632 422.899 202.866 423.134C203.101 423.368 203.418 423.5 203.75 423.5H207.5C207.832 423.5 208.149 423.368 208.384 423.134C208.618 422.899 208.75 422.581 208.75 422.25V418.5H211.25V422.25C211.25 422.581 211.382 422.899 211.616 423.134C211.851 423.368 212.168 423.5 212.5 423.5H216.25C216.582 423.5 216.899 423.368 217.134 423.134C217.368 422.899 217.5 422.581 217.5 422.25V415.027C217.5 414.854 217.464 414.683 217.395 414.525C217.325 414.366 217.223 414.224 217.096 414.107ZM216.25 422.25H212.5V418.5C212.5 418.168 212.368 417.85 212.134 417.616C211.899 417.382 211.582 417.25 211.25 417.25H208.75C208.418 417.25 208.101 417.382 207.866 417.616C207.632 417.85 207.5 418.168 207.5 418.5V422.25H203.75V415.027L203.759 415.019L210 409.125L216.242 415.018L216.251 415.026L216.25 422.25Z" fill="white"/>
<circle cx="31" cy="365" r="31" fill="#E94E33" fill-opacity="0.3"/>
<circle cx="31" cy="365" r="22" fill="#E94E33"/>
<path d="M38.76 357.241C38.6028 357.084 38.4066 356.971 38.1915 356.915C37.9765 356.859 37.7504 356.861 37.5366 356.922H37.5248L22.5295 361.472C22.2854 361.542 22.0685 361.685 21.9076 361.881C21.7468 362.078 21.6496 362.319 21.6291 362.572C21.6086 362.825 21.6656 363.079 21.7927 363.299C21.9198 363.518 22.1109 363.694 22.3405 363.803L29.0295 366.971L32.1975 373.66C32.2975 373.874 32.4567 374.055 32.6563 374.182C32.856 374.309 33.0876 374.376 33.3241 374.375C33.36 374.375 33.3959 374.373 33.4319 374.37C33.6841 374.35 33.9241 374.253 34.1196 374.092C34.3151 373.931 34.4568 373.715 34.5256 373.471L39.0725 358.476C39.0725 358.472 39.0725 358.468 39.0725 358.464C39.1337 358.251 39.137 358.025 39.0821 357.81C39.0272 357.595 38.916 357.398 38.76 357.241ZM33.3311 373.113L33.3272 373.124L30.2522 366.633L33.9428 362.941C34.0551 362.823 34.1167 362.666 34.1146 362.503C34.1126 362.34 34.0469 362.184 33.9316 362.069C33.8164 361.954 33.6607 361.888 33.4977 361.886C33.3347 361.884 33.1774 361.946 33.0592 362.058L29.3678 365.748L22.8756 362.673H22.8866L37.8756 358.125L33.3311 373.113Z" fill="white"/>
<defs>
<clipPath id="clip0_1_2372">
<rect width="20" height="20" fill="white" transform="translate(270 230)"/>
</clipPath>
</defs>
</svg>
